<svg width="500" height="500" viewBox="0 0 500 500" fill="none" xmlns="http://www.w3.org/2000/svg">
<g clip-path="url(#clip0_5_169)">
<path d="M250 0C111.93 0 0 111.93 0 250C0 388.07 111.93 500 250 500C388.07 500 500 388.07 500 250C500 111.93 388.07 0 250 0ZM406.61 334.34C403.87 340.76 390 346.09 366.53 349.71C364.33 350.05 363.4 353.61 362.13 359.44C361.6 361.85 361.07 364.21 360.34 366.69C359.66 369.02 358.14 370.16 355.7 370.16H355.33C353.74 370.16 351.49 369.87 348.65 369.32C343.69 368.35 338.12 367.46 331.05 367.46C326.92 367.46 322.65 367.82 318.36 368.53C309.63 369.98 302.17 375.25 294.27 380.84C283.21 388.66 270.69 397.51 251.99 397.51C251.1 397.51 250.25 397.48 249.6 397.45C249.09 397.49 248.56 397.51 248.03 397.51C229.32 397.51 216.81 388.67 205.77 380.86C197.86 375.27 190.4 369.99 181.65 368.54C177.36 367.83 173.09 367.47 168.96 367.47C161.52 367.47 155.65 368.62 151.36 369.46C148.72 369.97 146.44 370.42 144.68 370.42C142.92 370.42 140.6 370.01 139.67 366.83C138.93 364.32 138.4 361.88 137.89 359.54C136.61 353.68 135.68 350.1 133.49 349.76C110.02 346.14 96.16 340.81 93.4 334.35C93.11 333.67 92.95 332.99 92.91 332.31C92.8 330.38 94.16 328.7 96.06 328.38C114.7 325.31 131.27 315.46 145.31 299.1C156.19 286.43 161.53 274.32 162.11 272.99C162.14 272.93 162.16 272.87 162.19 272.81C164.9 267.32 165.44 262.57 163.8 258.7C160.78 251.57 150.76 248.39 144.14 246.29C142.49 245.77 140.93 245.28 139.69 244.78C133.82 242.46 124.16 237.56 125.44 230.79C126.38 225.86 132.9 222.42 138.18 222.42C139.64 222.42 140.94 222.68 142.03 223.19C147.99 225.98 153.35 227.4 157.96 227.4C163.69 227.4 166.46 225.22 167.13 224.6C166.96 221.54 166.76 218.31 166.57 215.25V215.21C165.22 193.8 163.55 167.16 170.36 151.88C190.76 106.14 234.02 102.59 246.79 102.59C247.13 102.59 252.36 102.54 252.36 102.54C252.6 102.54 252.85 102.54 253.12 102.54C265.92 102.54 309.27 106.1 329.68 151.86C336.5 167.15 334.81 193.82 333.46 215.25L333.4 216.28C333.21 219.19 333.04 221.94 332.9 224.61C333.53 225.19 336.06 227.19 341.22 227.39C345.62 227.22 350.67 225.81 356.23 223.21C357.95 222.4 359.85 222.24 361.15 222.24C363.1 222.24 365.09 222.62 366.75 223.31L366.84 223.34C371.56 225.02 374.65 228.36 374.72 231.88C374.78 235.16 372.34 240.06 360.36 244.79C359.13 245.28 357.57 245.77 355.91 246.3C349.28 248.4 339.27 251.58 336.25 258.71C334.61 262.57 335.15 267.32 337.86 272.81C337.89 272.87 337.92 272.93 337.95 272.99C338.78 274.94 358.97 320.97 404 328.39C405.9 328.71 407.26 330.4 407.15 332.32C407.11 333.01 406.94 333.7 406.65 334.38L406.61 334.34Z" fill="white"/>
</g>
<defs>
<clipPath id="clip0_5_169">
<rect width="500" height="500" fill="white"/>
</clipPath>
</defs>
</svg>
