<svg width="3000" height="352" viewBox="0 0 3000 352" fill="none" xmlns="http://www.w3.org/2000/svg">
<g clip-path="url(#clip0_1_80)">
<path d="M2464.84 73.9301H2416.52V230.18H2464.84V73.9301Z" fill="white"/>
<path d="M2443.09 26.58C2447.44 26.58 2451.06 29 2454.69 34.55L2470.64 17.64C2466.53 7.49 2454.94 0 2443.1 0C2426.91 0 2415.32 10.15 2415.32 23.92C2415.32 28.51 2416.53 32.86 2419.43 36.72H2410.97V60.88H2470.65V36.72H2444.07C2439.48 36.72 2436.34 34.55 2436.34 31.65C2436.34 28.75 2439.24 26.58 2443.1 26.58" fill="white"/>
<path d="M2548.05 129.33C2559.42 149.89 2564.74 165.61 2564.74 179.15C2564.74 204.06 2544.67 220.99 2508.87 226.55L2525.8 281.69C2578.52 269.84 2608.27 232.84 2608.27 179.15C2608.27 154.96 2603.43 133.92 2593.03 111.43L2548.05 129.33Z" fill="white"/>
<path d="M2819.58 122.25C2821.48 117.02 2825.8 110.58 2831.82 104.56C2837.84 98.54 2844.28 94.22 2849.51 92.32C2844.28 90.42 2837.84 86.11 2831.82 80.08C2825.8 74.06 2821.48 67.62 2819.58 62.39C2817.68 67.62 2813.37 74.06 2807.34 80.08C2801.32 86.1 2794.88 90.42 2789.65 92.32C2794.88 94.22 2801.32 98.54 2807.34 104.56C2813.36 110.58 2817.68 117.02 2819.58 122.25Z" fill="white"/>
<path d="M2352.62 235.32C2350.72 240.55 2346.4 246.99 2340.38 253.01C2334.36 259.03 2327.92 263.35 2322.69 265.25C2327.92 267.15 2334.36 271.47 2340.38 277.49C2346.4 283.51 2350.72 289.95 2352.62 295.18C2354.52 289.95 2358.84 283.51 2364.86 277.49C2370.88 271.47 2377.32 267.15 2382.55 265.25C2377.32 263.35 2370.88 259.04 2364.86 253.01C2358.84 246.99 2354.52 240.55 2352.62 235.32Z" fill="white"/>
<path d="M2940.75 174.07C2923.58 174.07 2915.36 170.68 2915.36 163.19C2915.36 155.7 2923.58 152.07 2940.75 152.07C2957.92 152.07 2966.14 155.7 2966.14 163.19C2966.14 170.68 2957.92 174.07 2940.75 174.07ZM2940.75 103.69C2913.9 103.69 2894.56 117.47 2885.61 142.87C2879.56 160.28 2872.55 169.72 2858.28 169.72C2846.43 169.72 2841.35 163.92 2841.35 150.37V127.4H2797.82V150.37C2797.82 163.91 2792.74 169.72 2780.89 169.72H2689.34C2677.49 169.72 2672.41 163.92 2672.41 150.37V36.72H2624.04V162.22C2624.04 206.96 2637.34 230.18 2672.41 230.18H2763.96C2787.9 230.18 2798.06 213.73 2798.06 175.28H2813.78C2808.22 210.35 2818.13 230.18 2841.35 230.18C2864.57 230.18 2875.45 213.73 2875.45 175.28H2891.17C2886.09 213.25 2903.99 234.53 2940.75 234.53C2977.51 234.53 3000 208.41 3000 169.23C3000 130.05 2976.3 103.69 2940.75 103.69Z" fill="white"/>
<path d="M2246.28 169.72H2217.53C2206.17 169.72 2200.14 166.82 2200.14 161.51C2200.14 155.47 2206.9 151.6 2216.81 151.6C2234.45 151.6 2246.29 158.36 2246.29 168.51V169.72H2246.28ZM2343.43 125.46C2350.44 135.62 2354.55 145.77 2354.55 153.76C2354.55 163.19 2349.71 169.72 2337.62 169.72H2279.61V168.51C2279.61 129.61 2255.21 103.76 2220.17 103.76C2188.04 103.76 2166.53 129.85 2166.53 168.75C2166.53 207.65 2179.82 230.12 2216.54 230.12H2239.01C2232.49 237.13 2221.62 240.27 2203.98 240.27C2190.69 240.27 2176.2 236.89 2163.39 231.57L2150.34 291.01C2169.43 297.77 2186.82 300.67 2202.04 300.67C2240.12 300.67 2266.32 279.05 2275.72 230.18H2340.51C2378.24 230.18 2399.52 205.27 2399.52 160.77C2399.52 143.84 2394.92 126.43 2385.98 107.56L2343.42 125.46H2343.43Z" fill="white"/>
<path d="M2092.23 169.72H2076.03C2059.1 169.72 2045.56 176.25 2020.16 196.81L2010.49 184.72L2026.69 172.39C2052.33 152.56 2071.91 145.54 2091.75 145.54C2103.6 145.54 2110.37 149.89 2110.37 157.39C2110.37 165.37 2103.84 169.72 2092.23 169.72ZM2097.07 98.37C2070.95 98.37 2055.71 113.12 2044.35 147.22H2028.63C2036.13 131.02 2039.51 116.75 2039.51 99.82V36.72H1991.14V160.76L1980.98 169.71H1973.48H1949.34C1937.49 169.71 1932.41 163.91 1932.41 150.36V127.39H1888.88V150.36C1888.88 163.9 1883.8 169.71 1871.95 169.71H1760.21V215.66H1798.18C1803.26 215.66 1806.64 218.56 1806.64 222.92C1806.64 227.28 1803.26 230.18 1798.18 230.18H1527.3V295.48H1773.03C1804.96 295.48 1824.3 274.68 1824.3 247.35C1824.3 235.01 1820.67 221.47 1810.76 205.27L1826.48 197.77C1830.35 218.57 1840.5 230.17 1855.01 230.18C1878.95 230.18 1889.11 213.74 1889.11 175.28H1904.83C1899.27 210.35 1909.19 230.18 1932.4 230.18H2090.29C2122.21 230.18 2146.64 201.16 2146.64 157.14C2146.64 128.12 2130.19 98.37 2097.06 98.37" fill="white"/>
<path d="M1898.75 235.32C1896.85 240.55 1892.53 246.99 1886.51 253.01C1880.49 259.03 1874.05 263.35 1868.82 265.25C1874.05 267.15 1880.49 271.47 1886.51 277.49C1892.53 283.51 1896.85 289.95 1898.75 295.18C1900.65 289.95 1904.97 283.51 1910.99 277.49C1917.01 271.47 1923.45 267.15 1928.68 265.25C1923.45 263.35 1917.01 259.04 1910.99 253.01C1904.97 246.99 1900.65 240.55 1898.75 235.32Z" fill="white"/>
<path d="M2092.23 90.8099C2094.13 85.5799 2098.45 79.14 2104.47 73.12C2110.49 67.1 2116.93 62.78 2122.16 60.88C2116.93 58.98 2110.49 54.67 2104.47 48.6399C2098.45 42.6199 2094.13 36.18 2092.23 30.95C2090.33 36.18 2086.01 42.6199 2079.99 48.6399C2073.97 54.6599 2067.53 58.98 2062.3 60.88C2067.53 62.78 2073.97 67.1 2079.99 73.12C2086.01 79.14 2090.33 85.5799 2092.23 90.8099Z" fill="white"/>
<path d="M1733.46 315.7C1729.98 319.18 1726.35 321.96 1722.98 323.91C1719.61 321.96 1715.97 319.17 1712.5 315.7C1707.38 310.58 1703.71 305.11 1702.1 300.66C1700.48 305.11 1696.82 310.58 1691.7 315.7C1686.58 320.82 1681.11 324.49 1676.66 326.1C1681.11 327.72 1686.58 331.38 1691.7 336.5C1696.82 341.62 1700.49 347.09 1702.1 351.54C1703.72 347.09 1707.38 341.62 1712.5 336.5C1715.98 333.02 1719.61 330.24 1722.98 328.29C1726.35 330.24 1729.99 333.03 1733.46 336.5C1738.58 341.62 1742.25 347.09 1743.86 351.54C1745.48 347.09 1749.14 341.62 1754.26 336.5C1759.38 331.38 1764.85 327.71 1769.3 326.1C1764.85 324.49 1759.38 320.82 1754.26 315.7C1749.14 310.58 1745.47 305.11 1743.86 300.66C1742.25 305.11 1738.58 310.58 1733.46 315.7Z" fill="white"/>
<path d="M0 53.45H59.17L76.36 107.23C82.16 126.82 85.16 137.62 87.36 146.41C89.96 137.21 92.76 126.82 98.75 107.23L116.14 53.45H172.91V193.38H135.93V83.83L101.55 193.38H70.96L36.98 84.0299V193.38H0V53.45Z" fill="white"/>
<path d="M237.69 173.4C247.49 173.4 255.88 166.8 255.88 152.81V146.61C238.89 148.41 226.49 152.41 226.49 163.8C226.49 169.8 230.49 173.4 237.68 173.4M241.69 112.63C230.5 112.63 225.3 118.03 223.3 126.82L190.91 121.42C193.11 103.83 211.5 89.83 242.29 89.83C273.08 89.83 289.67 103.03 289.67 129.41V162.19C289.67 166.99 290.47 168.39 295.27 168.39H303.07V193.38H279.88C267.08 193.38 261.09 187.98 259.69 178.79C254.69 186.79 243.1 196.78 225.11 196.78C205.32 196.78 192.12 185.59 192.12 167.39C192.12 141.4 219.91 131.41 255.89 128.61V125.01C255.89 117.21 251.49 112.62 241.7 112.62" fill="white"/>
<path d="M315.86 93.04H349.85V108.83C354.65 100.23 365.64 89.84 382.63 89.84C405.22 89.84 416.02 103.83 416.02 126.22V193.39H380.64V132.82C380.64 121.82 375.24 116.83 367.05 116.83C352.46 116.83 351.06 132.42 351.06 141.62V193.4H315.88V93.05L315.86 93.04Z" fill="white"/>
<path d="M478.79 173.4C488.59 173.4 496.98 166.8 496.98 152.81V146.61C479.99 148.41 467.59 152.41 467.59 163.8C467.59 169.8 471.59 173.4 478.78 173.4M482.78 112.63C471.59 112.63 466.39 118.03 464.39 126.82L432.01 121.42C434.21 103.83 452.6 89.83 483.39 89.83C514.18 89.83 530.77 103.03 530.77 129.41V162.19C530.77 166.99 531.57 168.39 536.37 168.39H544.17V193.38H520.98C508.19 193.38 502.19 187.98 500.79 178.79C495.79 186.79 484.2 196.78 466.21 196.78C446.42 196.78 433.22 185.59 433.22 167.39C433.22 141.4 461.01 131.41 496.99 128.61V125.01C496.99 117.21 492.59 112.62 482.8 112.62" fill="white"/>
<path d="M556.95 93.04H591.13V117.83C595.13 106.04 604.32 90.64 626.11 90.64C628.91 90.64 630.71 90.84 633.11 91.24V125.02C628.31 124.42 624.31 124.02 620.32 124.02C600.53 124.02 592.13 133.02 592.13 154.6V193.38H556.95V93.03V93.04Z" fill="white"/>
<path d="M733.47 112.43L725.87 135.42H759.86L752.46 112.23C747.66 97.24 745.46 89.4399 743.26 81.4499L733.46 112.43H733.47ZM718.88 53.45H768.86L819.44 193.38H778.46L769.06 164.19H716.48L706.88 193.38H668.1L718.88 53.45Z" fill="white"/>
<path d="M904.2 143.21C904.2 122.02 895.8 114.22 884.61 114.22C873.42 114.22 864.82 123.42 864.82 143.21C864.82 163 873.02 172.2 884.61 172.2C896.2 172.2 904.2 164.2 904.2 143.21ZM865.41 180.2V193.4H831.23V53.45H866.01V106.23C870.81 98.63 882 89.8399 897.59 89.8399C923.78 89.8399 940.57 111.43 940.57 143.22C940.57 175.01 924.18 196.8 897.39 196.8C880.4 196.8 869.8 187 865.41 180.21" fill="white"/>
<path d="M957.37 160.61V93.04H992.75V153.61C992.75 164.8 997.95 169.6 1005.54 169.6C1016.93 169.6 1021.73 159.21 1021.73 146.01V93.04H1056.71V193.39H1022.53V178.2C1017.93 185.6 1007.94 196.79 989.55 196.79C971.16 196.79 957.36 183.59 957.36 160.61" fill="white"/>
<path d="M1178.47 163.4C1203.46 163.4 1216.05 149.21 1216.05 123.02C1216.05 99.2299 1203.46 83.2399 1179.27 83.2399H1161.08V163.4H1178.47ZM1123.3 53.45H1180.27C1222.85 53.45 1255.43 79.0399 1255.43 122.62C1255.43 166.2 1222.65 193.39 1181.06 193.39H1123.29V53.45H1123.3Z" fill="white"/>
<path d="M1273.03 53.45H1307.61V108.82C1312.01 101.02 1322.2 89.83 1340.6 89.83C1361.59 89.83 1373.19 103.02 1373.19 126.21V193.38H1337.81V132.81C1337.81 121.81 1332.61 116.82 1324.41 116.82C1309.62 116.82 1308.22 132.61 1308.22 141.61V193.38H1273.04V53.45H1273.03Z" fill="white"/>
<path d="M1435.96 173.4C1445.76 173.4 1454.15 166.8 1454.15 152.81V146.61C1437.16 148.41 1424.76 152.41 1424.76 163.8C1424.76 169.8 1428.76 173.4 1435.95 173.4M1439.96 112.63C1428.77 112.63 1423.57 118.03 1421.57 126.82L1389.19 121.42C1391.39 103.83 1409.78 89.83 1440.57 89.83C1471.36 89.83 1487.95 103.03 1487.95 129.41V162.19C1487.95 166.99 1488.75 168.39 1493.55 168.39H1501.35V193.38H1478.16C1465.37 193.38 1459.37 187.98 1457.97 178.79C1452.97 186.79 1441.38 196.78 1423.39 196.78C1403.6 196.78 1390.41 185.59 1390.41 167.39C1390.41 141.4 1418.2 131.41 1454.18 128.61V125.01C1454.18 117.21 1449.78 112.62 1439.99 112.62" fill="white"/>
<path d="M1587.09 143.21C1587.09 122.02 1578.69 114.22 1567.5 114.22C1556.31 114.22 1547.71 123.42 1547.71 143.21C1547.71 163 1555.91 172.2 1567.5 172.2C1579.09 172.2 1587.09 164.2 1587.09 143.21ZM1548.31 180.2V193.4H1514.13V53.45H1548.91V106.23C1553.71 98.63 1564.9 89.8399 1580.5 89.8399C1606.69 89.8399 1623.48 111.43 1623.48 143.22C1623.48 175.01 1607.09 196.8 1580.3 196.8C1563.31 196.8 1552.71 187 1548.31 180.21" fill="white"/>
<path d="M1676.66 93.03H1641.46V193.38H1676.66V93.03Z" fill="white"/>
<path d="M1659.06 83.48C1660.96 78.23 1665.3 71.77 1671.34 65.73C1677.38 59.69 1683.84 55.36 1689.09 53.45C1683.84 51.55 1677.38 47.21 1671.34 41.17C1665.3 35.13 1660.97 28.67 1659.06 23.42C1657.15 28.67 1652.82 35.13 1646.79 41.17C1640.75 47.21 1634.29 51.54 1629.04 53.45C1634.29 55.36 1640.75 59.69 1646.79 65.73C1652.83 71.77 1657.16 78.23 1659.06 83.48Z" fill="white"/>
</g>
<defs>
<clipPath id="clip0_1_80">
<rect width="3000" height="351.54" fill="white"/>
</clipPath>
</defs>
</svg>
