<svg width="1000" height="898" viewBox="0 0 1000 898" fill="none" xmlns="http://www.w3.org/2000/svg">
<g clip-path="url(#clip0_1_54)">
<path d="M972.99 239.29C977.25 239.29 980.81 241.66 984.36 247.11L1000 230.53C995.97 220.58 984.6 213.24 972.99 213.24C957.12 213.24 945.74 223.19 945.74 236.69C945.74 241.19 946.93 245.46 949.77 249.25H941.48V272.94H1000V249.25H973.94C969.44 249.25 966.36 247.12 966.36 244.27C966.36 241.42 969.2 239.3 972.99 239.3" fill="white"/>
<path d="M994.31 285.72H946.93V438.93H994.31V285.72Z" fill="white"/>
<path d="M884.27 443.98C882.41 449.11 878.17 455.42 872.27 461.33C866.37 467.23 860.05 471.47 854.92 473.33C860.05 475.19 866.36 479.43 872.27 485.33C878.17 491.23 882.41 497.55 884.27 502.68C886.13 497.55 890.36 491.24 896.27 485.33C902.17 479.43 908.49 475.19 913.62 473.33C908.49 471.47 902.17 467.23 896.27 461.33C890.37 455.43 886.13 449.11 884.27 443.98Z" fill="white"/>
<path d="M732.42 379.65H704.23C693.09 379.65 687.17 376.81 687.17 371.59C687.17 365.67 693.8 361.88 703.52 361.88C720.81 361.88 732.42 368.51 732.42 378.46V379.65ZM917 318.7L875.26 336.25C882.14 346.21 886.17 356.17 886.17 364C886.17 373.25 881.43 379.65 869.57 379.65H765.11V378.46C765.11 340.32 741.18 314.97 706.83 314.97C675.32 314.97 654.23 340.56 654.23 378.7C654.23 416.84 667.26 438.88 703.27 438.88H725.3C718.9 445.75 708.24 448.83 690.95 448.83C677.92 448.83 663.7 445.51 651.15 440.3L638.36 498.58C657.08 505.21 674.13 508.06 689.06 508.06C726.4 508.06 752.1 486.86 761.31 438.94H872.42C909.42 438.94 930.29 414.51 930.29 370.88C930.29 354.28 925.78 337.2 917.01 318.71" fill="white"/>
<path d="M355.74 443.98C353.88 449.11 349.64 455.42 343.74 461.33C337.84 467.24 331.52 471.47 326.39 473.33C331.52 475.19 337.83 479.43 343.74 485.33C349.64 491.23 353.88 497.55 355.74 502.68C357.6 497.55 361.84 491.24 367.74 485.33C373.64 479.43 379.96 475.19 385.09 473.33C379.96 471.47 373.65 467.23 367.74 461.33C361.83 455.43 357.6 449.11 355.74 443.98Z" fill="white"/>
<path d="M569.78 260.93C563.88 266.83 557.56 271.07 552.43 272.93C557.56 274.79 563.87 279.03 569.78 284.93C575.69 290.83 579.92 297.15 581.78 302.28C583.64 297.15 587.88 290.84 593.78 284.93C599.68 279.02 606 274.79 611.13 272.93C606 271.07 599.69 266.83 593.78 260.93C587.88 255.03 583.64 248.71 581.78 243.58C579.92 248.71 575.68 255.02 569.78 260.93Z" fill="white"/>
<path d="M517.51 382.26C542.65 362.81 561.86 355.94 581.31 355.94C592.93 355.94 599.57 360.21 599.57 367.56C599.57 375.39 593.17 379.66 581.78 379.66H565.89C549.29 379.66 536.01 386.06 511.11 406.22L501.62 394.36L517.51 382.27V382.26ZM282.74 455.77C282.74 443.67 279.18 430.39 269.46 414.51L284.88 407.16C288.67 427.55 298.63 438.94 312.86 438.94C336.34 438.94 346.3 422.81 346.3 385.1H361.72C356.26 419.49 365.99 438.94 388.75 438.94H579.89C611.19 438.94 635.15 410.48 635.15 367.32C635.15 338.86 619.02 309.69 586.53 309.69C560.92 309.69 545.98 324.16 534.83 357.6H519.42C526.77 341.71 530.09 327.72 530.09 311.12V249.25H482.66V370.89L472.7 379.66H465.35H405.36C393.74 379.66 388.76 373.97 388.76 360.69V338.16H346.07V360.69C346.07 373.97 341.09 379.66 329.47 379.66H219.9V424.72H257.13C262.11 424.72 265.43 427.57 265.43 431.84C265.43 436.11 262.11 438.96 257.13 438.96H0V502.99H232.46C263.76 502.99 282.74 482.59 282.74 455.8" fill="white"/>
<path d="M193.68 522.75C190.27 526.16 186.71 528.89 183.4 530.8C180.09 528.89 176.53 526.16 173.12 522.75C168.1 517.73 164.5 512.36 162.92 508C161.34 512.36 157.74 517.73 152.72 522.75C147.7 527.77 142.33 531.37 137.97 532.95C142.33 534.53 147.7 538.13 152.72 543.15C157.74 548.17 161.34 553.54 162.92 557.9C164.5 553.54 168.1 548.17 173.12 543.15C176.53 539.74 180.09 537.01 183.4 535.1C186.7 537.01 190.27 539.74 193.68 543.15C198.7 548.17 202.3 553.54 203.88 557.9C205.46 553.54 209.06 548.17 214.08 543.15C219.1 538.13 224.47 534.53 228.83 532.95C224.47 531.37 219.1 527.77 214.08 522.75C209.06 517.73 205.46 512.36 203.88 508C202.3 512.36 198.7 517.73 193.68 522.75Z" fill="white"/>
<path d="M941.9 113.1C958.74 113.1 966.8 116.66 966.8 124.01C966.8 131.36 958.74 134.68 941.9 134.68C925.06 134.68 917 131.36 917 124.01C917 116.66 925.06 113.1 941.9 113.1ZM548.21 189.7H768.54C792.02 189.7 801.98 173.57 801.98 135.87H817.4C811.94 170.26 821.67 189.7 844.43 189.7C867.19 189.7 877.87 173.57 877.87 135.87H893.28C888.3 173.1 905.85 193.97 941.9 193.97C977.95 193.97 1000 168.36 1000 129.94C1000 91.52 976.76 65.67 941.9 65.67C915.58 65.67 896.6 79.19 887.83 104.09C881.9 121.17 875.02 130.41 861.03 130.41C849.41 130.41 844.43 124.72 844.43 111.44V88.91H801.74V111.44C801.74 124.72 796.76 130.41 785.14 130.41H564.81C553.19 130.41 548.21 124.72 548.21 111.44V0H500.78V123.06C500.78 166.93 513.82 189.7 548.21 189.7Z" fill="white"/>
<path d="M387.86 186.14L404.46 240.21C456.16 228.59 485.33 192.3 485.33 139.66C485.33 115.94 480.59 95.31 470.39 73.26L426.28 90.81C437.43 110.97 442.65 126.38 442.65 139.66C442.65 164.09 422.97 180.69 387.87 186.14" fill="white"/>
<path d="M823.08 82.3801C824.94 77.2501 829.18 70.9401 835.08 65.0301C840.98 59.1301 847.3 54.8901 852.43 53.0301C847.3 51.1701 840.98 46.9301 835.08 41.0301C829.18 35.1301 824.94 28.8101 823.08 23.6801C821.22 28.8101 816.98 35.1201 811.08 41.0301C805.18 46.9301 798.86 51.1701 793.73 53.0301C798.86 54.8901 805.17 59.1201 811.08 65.0301C816.98 70.9301 821.22 77.2501 823.08 82.3801Z" fill="white"/>
<path d="M0 581.48H58L74.85 634.19C80.53 653.39 83.47 663.97 85.63 672.59C88.18 663.58 90.92 653.39 96.8 634.19L113.85 581.48H169.5V718.64H133.25V611.26L99.55 718.64H69.57L36.26 611.46V718.64H0V581.48Z" fill="white"/>
<path d="M232.98 699.05C242.58 699.05 250.81 692.58 250.81 678.87V672.8C234.15 674.56 222.01 678.48 222.01 689.65C222.01 695.53 225.93 699.06 232.98 699.06M236.9 639.48C225.93 639.48 220.83 644.77 218.87 653.39L187.13 648.1C189.28 630.85 207.31 617.14 237.49 617.14C267.67 617.14 283.93 630.07 283.93 655.94V688.07C283.93 692.77 284.71 694.14 289.42 694.14H297.06V718.63H274.33C261.79 718.63 255.91 713.34 254.54 704.33C249.64 712.17 238.28 721.97 220.64 721.97C201.24 721.97 188.31 711 188.31 693.16C188.31 667.69 215.55 657.89 250.82 655.15V651.62C250.82 643.98 246.51 639.47 236.91 639.47" fill="white"/>
<path d="M309.6 620.28H342.91V635.76C347.61 627.34 358.39 617.15 375.04 617.15C397.18 617.15 407.76 630.87 407.76 652.81V718.65H373.08V659.28C373.08 648.5 367.79 643.6 359.76 643.6C345.46 643.6 344.08 658.88 344.08 667.9V718.65H309.59V620.29L309.6 620.28Z" fill="white"/>
<path d="M469.29 699.05C478.89 699.05 487.12 692.58 487.12 678.87V672.8C470.47 674.56 458.32 678.48 458.32 689.65C458.32 695.53 462.24 699.06 469.29 699.06M473.21 639.48C462.24 639.48 457.14 644.77 455.18 653.39L423.44 648.1C425.6 630.85 443.62 617.14 473.8 617.14C503.98 617.14 520.24 630.07 520.24 655.94V688.07C520.24 692.77 521.02 694.14 525.73 694.14H533.37V718.63H510.64C498.1 718.63 492.22 713.34 490.85 704.33C485.95 712.17 474.59 721.97 456.95 721.97C437.55 721.97 424.62 711 424.62 693.16C424.62 667.69 451.86 657.89 487.13 655.15V651.62C487.13 643.98 482.82 639.47 473.22 639.47" fill="white"/>
<path d="M545.91 620.28H579.42V644.58C583.34 633.02 592.35 617.93 613.71 617.93C616.45 617.93 618.22 618.13 620.57 618.52V651.63C615.87 651.04 611.95 650.65 608.03 650.65C588.63 650.65 580.4 659.47 580.4 680.63V718.64H545.91V620.28Z" fill="white"/>
<path d="M64.03 814.85L56.59 837.37H89.88L82.63 814.66C77.93 799.97 75.78 792.34 73.62 784.5L64.03 814.85ZM49.74 757.08H98.69L148.23 894.15H108.09L98.89 865.56H47.39L37.99 894.15H0L49.74 757.08Z" fill="white"/>
<path d="M231.26 845C231.26 824.25 223.04 816.61 212.07 816.61C201.1 816.61 192.68 825.62 192.68 845C192.68 864.38 200.71 873.39 212.07 873.39C223.43 873.39 231.26 865.56 231.26 845ZM193.27 881.23V894.15H159.79V757.08H193.86V808.78C198.56 801.34 209.52 792.72 224.8 792.72C250.45 792.72 266.9 813.87 266.9 845C266.9 876.13 250.84 897.48 224.61 897.48C207.96 897.48 197.59 887.89 193.28 881.23" fill="white"/>
<path d="M283.34 862.04V795.86H318V855.19C318 866.16 323.09 870.86 330.53 870.86C341.69 870.86 346.39 860.68 346.39 847.75V795.86H380.66V894.16H347.18V879.28C342.68 886.52 332.89 897.49 314.87 897.49C296.85 897.49 283.34 884.57 283.34 862.05" fill="white"/>
<path d="M499.91 864.78C524.39 864.78 536.72 850.88 536.72 825.23C536.72 801.93 524.39 786.26 500.69 786.26H482.87V864.78H499.91ZM445.87 757.08H501.68C543.39 757.08 575.3 782.14 575.3 824.83C575.3 867.52 543.19 894.15 502.46 894.15H445.87V757.08Z" fill="white"/>
<path d="M592.53 757.08H626.4V811.32C630.71 803.68 640.7 792.72 658.71 792.72C679.27 792.72 690.63 805.64 690.63 828.36V894.15H655.97V834.82C655.97 824.05 650.88 819.16 642.85 819.16C628.36 819.16 626.99 834.63 626.99 843.44V894.15H592.53V757.08Z" fill="white"/>
<path d="M752.12 874.57C761.71 874.57 769.94 868.11 769.94 854.4V848.33C753.3 850.09 741.16 854.01 741.16 865.17C741.16 871.04 745.08 874.57 752.13 874.57M756.04 815.05C745.07 815.05 739.98 820.34 738.02 828.95L706.3 823.66C708.45 806.43 726.47 792.72 756.62 792.72C786.77 792.72 803.03 805.64 803.03 831.49V863.6C803.03 868.3 803.81 869.67 808.51 869.67H816.15V894.15H793.44C780.91 894.15 775.03 888.86 773.66 879.86C768.76 887.69 757.41 897.48 739.79 897.48C720.4 897.48 707.48 886.51 707.48 868.7C707.48 843.24 734.7 833.45 769.94 830.71V827.18C769.94 819.54 765.63 815.04 756.04 815.04" fill="white"/>
<path d="M900.16 845C900.16 824.25 891.94 816.61 880.97 816.61C870 816.61 861.58 825.62 861.58 845C861.58 864.38 869.61 873.39 880.97 873.39C892.33 873.39 900.16 865.56 900.16 845ZM862.17 881.23V894.15H828.69V757.08H862.76V808.78C867.46 801.34 878.42 792.72 893.7 792.72C919.35 792.72 935.8 813.87 935.8 845C935.8 876.13 919.74 897.48 893.51 897.48C876.86 897.48 866.49 887.89 862.18 881.23" fill="white"/>
<path d="M953.42 870.26V819.74V795.86H987.88V870.26V894.15H953.42V870.26Z" fill="white"/>
<path d="M970.65 727.8C968.79 732.93 964.55 739.24 958.65 745.15C952.75 751.05 946.43 755.29 941.3 757.15C946.43 759.01 952.74 763.25 958.65 769.15C964.55 775.05 968.79 781.37 970.65 786.5C972.51 781.37 976.75 775.05 982.65 769.15C988.55 763.25 994.87 759.01 1000 757.15C994.87 755.29 988.55 751.05 982.65 745.15C976.75 739.25 972.51 732.93 970.65 727.8Z" fill="white"/>
</g>
<defs>
<clipPath id="clip0_1_54">
<rect width="1000" height="897.48" fill="white"/>
</clipPath>
</defs>
</svg>
