<svg width="500" height="444" viewBox="0 0 500 444" fill="none" xmlns="http://www.w3.org/2000/svg">
<g clip-path="url(#clip0_5_87)">
<path d="M178.22 0H108.88C108.88 0 108.84 0.01 108.84 0.04V106.04C108.84 106.04 108.85 106.08 108.88 106.08H165C165 106.08 165.04 106.05 165.04 106.04V79.59C165.04 79.59 165.05 79.55 165.08 79.55H179.09C202.08 79.55 220.77 62.19 221.22 40.59C221.7 18.28 201.87 0 178.21 0" fill="#1D136A"/>
<path d="M221.24 116.84V222.92H108.85L221.24 116.84Z" fill="#1D136A"/>
<path d="M265.9 169.88V275.96H323.47C354.51 275.96 379.67 252.22 379.67 222.92C379.67 193.62 354.51 169.88 323.47 169.88H265.9Z" fill="#1D136A"/>
<path d="M265.9 26.52H378.29V132.59L322.09 79.56L265.9 132.59V26.52Z" fill="#1D136A"/>
<path d="M9.64 425.37C10.58 425.37 11.46 425.31 12.3 425.18C13.14 425.05 13.9 424.83 14.56 424.5C15.21 424.16 15.74 423.72 16.13 423.15C16.52 422.59 16.71 421.85 16.71 420.94C16.71 420.03 16.52 419.35 16.13 418.8C15.74 418.25 15.22 417.81 14.57 417.5C13.93 417.19 13.19 416.98 12.36 416.89C11.53 416.79 10.68 416.73 9.81 416.73H5.66V425.37H9.62H9.64ZM0 412.22H10.41C12.24 412.22 13.91 412.38 15.37 412.69C16.85 413 18.1 413.51 19.16 414.22C20.2 414.93 21.02 415.83 21.58 416.94C22.15 418.06 22.45 419.38 22.45 420.94C22.45 422.62 22.11 424.02 21.45 425.15C20.79 426.29 19.89 427.2 18.77 427.89C17.64 428.59 16.33 429.1 14.82 429.41C13.33 429.72 11.73 429.88 10.04 429.88H5.67V442.34H0V412.21V412.22Z" fill="#1D136A"/>
<path d="M52.93 431.28C52.93 433.1 52.61 434.74 51.94 436.19C51.28 437.66 50.37 438.89 49.22 439.92C48.08 440.93 46.74 441.73 45.17 442.27C43.61 442.83 41.91 443.1 40.08 443.1C38.25 443.1 36.54 442.83 34.99 442.27C33.43 441.72 32.07 440.93 30.92 439.92C29.75 438.89 28.85 437.66 28.2 436.19C27.56 434.73 27.24 433.1 27.24 431.28V412.21H32.92V431.07C32.92 431.94 33.04 432.82 33.28 433.68C33.51 434.54 33.92 435.32 34.48 435.99C35.03 436.68 35.77 437.22 36.68 437.65C37.6 438.08 38.73 438.29 40.09 438.29C41.45 438.29 42.59 438.08 43.5 437.65C44.42 437.22 45.16 436.68 45.71 435.99C46.27 435.31 46.66 434.53 46.91 433.68C47.16 432.82 47.27 431.94 47.27 431.07V412.21H52.95V431.28H52.93Z" fill="#1D136A"/>
<path d="M65.3699 437.83H70.4599C71.1699 437.83 71.9699 437.78 72.8099 437.67C73.6399 437.58 74.4199 437.37 75.1199 437.06C75.8199 436.75 76.4199 436.29 76.8899 435.7C77.3399 435.1 77.5799 434.31 77.5799 433.32C77.5799 431.73 77.0099 430.63 75.8599 430.01C74.7299 429.37 72.9899 429.06 70.6699 429.06H65.3499V437.83H65.3699ZM65.3699 424.47H70.4099C72.3199 424.47 73.7599 424.12 74.7499 423.4C75.7399 422.7 76.2299 421.68 76.2299 420.38C76.2299 419.02 75.7199 418.05 74.6999 417.48C73.6699 416.91 72.0899 416.64 69.9299 416.64H65.3699V424.46V424.47ZM59.6899 412.22H72.1399C73.3399 412.22 74.5199 412.35 75.6999 412.62C76.8699 412.89 77.9099 413.33 78.8299 413.95C79.7399 414.56 80.4799 415.34 81.0499 416.3C81.6199 417.26 81.9099 418.43 81.9099 419.8C81.9099 421.5 81.3999 422.91 80.3799 424.01C79.3699 425.11 78.0299 425.91 76.3799 426.39V426.48C78.3899 426.73 80.0499 427.47 81.3299 428.69C82.6299 429.91 83.2699 431.54 83.2699 433.58C83.2699 435.23 82.9299 436.61 82.2299 437.74C81.5399 438.86 80.6299 439.75 79.5099 440.44C78.3799 441.12 77.0899 441.61 75.6199 441.91C74.1599 442.2 72.6799 442.35 71.1799 442.35H59.6899V412.22Z" fill="#1D136A"/>
<path d="M88.8601 412.22V442.34H108.11V437.57H94.5401V412.22H88.8601Z" fill="#1D136A"/>
<path d="M117.58 412.22H111.9V442.35H117.58V412.22Z" fill="#1D136A"/>
<path d="M147.66 419.28C146.82 418.2 145.72 417.41 144.37 416.91C143.02 416.42 141.69 416.17 140.39 416.17C138.74 416.17 137.24 416.46 135.89 417.03C134.53 417.59 133.37 418.37 132.39 419.37C131.42 420.36 130.66 421.53 130.13 422.85C129.61 424.19 129.35 425.63 129.35 427.19C129.35 428.83 129.6 430.34 130.12 431.7C130.63 433.06 131.35 434.23 132.3 435.21C133.25 436.2 134.38 436.95 135.71 437.48C137.04 438.03 138.52 438.29 140.17 438.29C141.82 438.29 143.41 437.98 144.72 437.34C146.05 436.69 147.11 435.86 147.93 434.81L152.48 437.83C151.06 439.51 149.35 440.81 147.29 441.73C145.25 442.65 142.86 443.11 140.13 443.11C137.63 443.11 135.33 442.72 133.25 441.94C131.16 441.16 129.35 440.07 127.86 438.66C126.35 437.26 125.18 435.58 124.35 433.64C123.51 431.69 123.08 429.55 123.08 427.19C123.08 424.83 123.53 422.6 124.41 420.65C125.31 418.71 126.53 417.05 128.08 415.7C129.63 414.34 131.45 413.28 133.55 412.54C135.66 411.81 137.94 411.44 140.4 411.44C141.43 411.44 142.49 411.54 143.61 411.73C144.73 411.91 145.78 412.2 146.81 412.57C147.82 412.96 148.8 413.43 149.7 414C150.61 414.56 151.38 415.25 152 416.04L147.67 419.28H147.66Z" fill="#1D136A"/>
<path d="M176.47 412.22L162.59 442.35H168.95L171.82 435.45H185.67L188.65 442.35H195.14L181.39 412.22H176.48H176.47ZM178.77 418.6L183.68 430.86H173.76L178.76 418.6H178.77Z" fill="#1D136A"/>
<path d="M208.61 425.2C209.43 425.2 210.23 425.14 211.05 425.03C211.86 424.91 212.58 424.69 213.23 424.39C213.88 424.07 214.41 423.62 214.83 423.04C215.25 422.47 215.47 421.71 215.47 420.8C215.47 419.98 215.28 419.31 214.89 418.79C214.49 418.27 213.99 417.84 213.4 417.53C212.8 417.22 212.11 417.01 211.35 416.89C210.58 416.79 209.84 416.72 209.13 416.72H203.98V425.19H208.62L208.61 425.2ZM198.29 412.22H209.38C210.89 412.22 212.34 412.38 213.76 412.66C215.16 412.96 216.42 413.45 217.52 414.13C218.62 414.82 219.51 415.72 220.16 416.82C220.82 417.92 221.16 419.26 221.16 420.86C221.16 423.04 220.51 424.82 219.2 426.2C217.89 427.56 216.11 428.5 213.86 428.98L222.37 442.34H215.52L208.13 429.58H203.98V442.34H198.3V412.21L198.29 412.22Z" fill="#1D136A"/>
<path d="M222.77 412.22V416.9H232.56V442.34H238.24V416.9H248.02V412.22H222.77Z" fill="#1D136A"/>
<path d="M271.1 412.22L257.21 442.35H263.58L266.47 435.45H280.31L283.29 442.35H289.78L276.03 412.22H271.12H271.1ZM273.4 418.6L278.31 430.86H268.39L273.39 418.6H273.4Z" fill="#1D136A"/>
<path d="M298.6 437.83H303.69C304.4 437.83 305.2 437.78 306.03 437.67C306.87 437.58 307.65 437.37 308.36 437.06C309.06 436.75 309.66 436.29 310.13 435.7C310.58 435.1 310.82 434.31 310.82 433.32C310.82 431.73 310.25 430.63 309.1 430.01C307.97 429.37 306.23 429.06 303.91 429.06H298.59V437.83H298.6ZM298.6 424.47H303.64C305.55 424.47 306.98 424.12 307.97 423.4C308.97 422.7 309.46 421.68 309.46 420.38C309.46 419.02 308.95 418.05 307.93 417.48C306.9 416.91 305.32 416.64 303.16 416.64H298.6V424.46V424.47ZM292.92 412.22H305.36C306.57 412.22 307.75 412.35 308.92 412.62C310.1 412.89 311.14 413.33 312.07 413.95C312.98 414.56 313.72 415.34 314.29 416.3C314.86 417.26 315.15 418.43 315.15 419.8C315.15 421.5 314.64 422.91 313.62 424.01C312.61 425.11 311.27 425.91 309.62 426.39V426.48C311.63 426.73 313.28 427.47 314.57 428.69C315.87 429.91 316.51 431.54 316.51 433.58C316.51 435.23 316.17 436.61 315.47 437.74C314.78 438.86 313.87 439.75 312.75 440.44C311.62 441.12 310.32 441.61 308.86 441.91C307.4 442.2 305.92 442.35 304.42 442.35H292.93V412.22H292.92Z" fill="#1D136A"/>
<path d="M347.52 431.28C347.52 433.1 347.2 434.74 346.53 436.19C345.87 437.66 344.96 438.89 343.83 439.92C342.67 440.93 341.33 441.73 339.76 442.27C338.2 442.83 336.5 443.1 334.67 443.1C332.84 443.1 331.13 442.83 329.59 442.27C328.02 441.72 326.65 440.93 325.51 439.92C324.34 438.89 323.44 437.66 322.79 436.19C322.15 434.73 321.83 433.1 321.83 431.28V412.21H327.51V431.07C327.51 431.94 327.63 432.82 327.87 433.68C328.1 434.54 328.51 435.32 329.07 435.99C329.62 436.68 330.36 437.22 331.28 437.65C332.19 438.08 333.32 438.29 334.67 438.29C336.02 438.29 337.17 438.08 338.08 437.65C339 437.22 339.74 436.68 340.29 435.99C340.85 435.31 341.25 434.53 341.49 433.68C341.74 432.82 341.85 431.94 341.85 431.07V412.21H347.53V431.28H347.52Z" fill="#1D136A"/>
<path d="M375.96 437.67C377.44 437.67 378.91 437.5 380.38 437.18C381.86 436.86 383.19 436.31 384.37 435.53C385.57 434.74 386.53 433.68 387.28 432.36C388.03 431.02 388.41 429.33 388.41 427.29C388.41 425.13 388.03 423.38 387.28 422.01C386.53 420.65 385.56 419.59 384.37 418.81C383.19 418.06 381.86 417.52 380.38 417.24C378.91 416.97 377.44 416.82 375.96 416.82H371.23V437.67H375.96ZM365.55 412.22H376.87C378.94 412.22 381.03 412.48 383.13 412.99C385.22 413.5 387.13 414.34 388.81 415.52C390.49 416.69 391.86 418.24 392.9 420.16C393.97 422.07 394.49 424.45 394.49 427.28C394.49 429.92 393.97 432.19 392.9 434.09C391.86 435.99 390.48 437.55 388.81 438.77C387.13 439.99 385.22 440.89 383.13 441.47C381.02 442.04 378.93 442.34 376.87 442.34H365.55V412.21V412.22Z" fill="#1D136A"/>
<path d="M420.6 412.22V424.39H405.68V412.22H400.01V442.34H405.68V428.98H420.6V442.34H426.28V412.22H420.6Z" fill="#1D136A"/>
<path d="M443.32 412.22L429.44 442.35H435.8L438.69 435.45H452.53L455.51 442.35H462.01L448.25 412.22H443.34H443.32ZM445.62 418.6L450.53 430.86H440.61L445.61 418.6H445.62Z" fill="#1D136A"/>
<path d="M470.83 437.83H475.92C476.63 437.83 477.43 437.78 478.26 437.67C479.1 437.58 479.88 437.37 480.59 437.06C481.29 436.75 481.89 436.29 482.36 435.7C482.81 435.1 483.05 434.31 483.05 433.32C483.05 431.73 482.48 430.63 481.33 430.01C480.2 429.37 478.46 429.06 476.14 429.06H470.82V437.83H470.83ZM470.83 424.47H475.87C477.77 424.47 479.21 424.12 480.2 423.4C481.2 422.7 481.69 421.68 481.69 420.38C481.69 419.02 481.18 418.05 480.16 417.48C479.13 416.91 477.55 416.64 475.38 416.64H470.83V424.46V424.47ZM465.15 412.22H477.59C478.8 412.22 479.98 412.35 481.16 412.62C482.33 412.89 483.37 413.33 484.29 413.95C485.2 414.56 485.94 415.34 486.51 416.3C487.08 417.26 487.37 418.43 487.37 419.8C487.37 421.5 486.86 422.91 485.84 424.01C484.83 425.11 483.49 425.91 481.84 426.39V426.48C483.84 426.73 485.5 427.47 486.79 428.69C488.09 429.91 488.73 431.54 488.73 433.58C488.73 435.23 488.39 436.61 487.69 437.74C487 438.86 486.09 439.75 484.97 440.44C483.84 441.12 482.54 441.61 481.08 441.91C479.62 442.2 478.14 442.35 476.64 442.35H465.15V412.22Z" fill="#1D136A"/>
<path d="M500 412.22H494.32V442.35H500V412.22Z" fill="#1D136A"/>
<path d="M92.6499 367.3C88.1899 363.53 84.0099 358.94 78.1999 356.86C81.1399 354.91 86.4699 351.83 91.0499 351.83C96.1799 351.83 98.4399 354.6 98.4399 357.99C98.4399 361.38 96.3699 364.59 92.6399 367.3M117.82 373.27H106.11C102.38 373.27 99.3299 372.07 96.5299 370.25C101.72 366.42 104.51 361.65 104.51 357.24C104.51 352.16 100.78 347.51 91.7299 347.51C84.9999 347.51 77.6199 351.34 72.4799 355.05L71.9499 359.08C78.6799 361.15 83.1999 365.8 87.8699 369.95C83.1999 372.02 76.9999 373.28 69.6199 373.28H60.5599V339.93H54.4399V377.87H69.4099C78.5299 377.87 86.0599 376.05 91.7899 373.15C95.4399 375.92 99.6399 377.87 105.31 377.87H123.95V339.93H117.82V373.28V373.27Z" fill="#1D136A"/>
<path d="M143.11 339.92H136.98V377.86H143.11V339.92Z" fill="#1D136A"/>
<path d="M228.03 342.92C230.03 342.92 231.69 341.35 231.69 339.46C231.69 337.57 230.03 336.07 228.03 336.07C226.03 336.07 224.43 337.64 224.43 339.46C224.43 341.28 226.09 342.92 228.03 342.92Z" fill="#1D136A"/>
<path d="M181.8 342.92C183.8 342.92 185.46 341.35 185.46 339.46C185.46 337.57 183.8 336.07 181.8 336.07C179.8 336.07 178.2 337.64 178.2 339.46C178.2 341.28 179.86 342.92 181.8 342.92Z" fill="#1D136A"/>
<path d="M227.9 373.27C221.84 373.27 218.58 369.5 218.58 362.52C218.58 355.54 223.1 352.21 227.9 352.21C234.02 352.21 237.09 355.98 237.09 362.52C237.09 369.94 232.83 373.27 227.9 373.27ZM279.95 373.27H262.72V339.92H256.59V373.27H243.96C241.49 373.27 238.16 373.46 238.16 373.46C241.49 371.13 243.29 366.73 243.29 362.27C243.29 351.7 236.9 347.64 228.44 347.64C218.46 347.64 212.34 354.41 212.34 362.96C212.34 367.99 213.93 371.51 216.72 373.46C216.72 373.46 214.26 373.27 212 373.27H207.18C203.48 373.27 200.42 372.09 197.63 370.28C198.15 368.81 198.51 367.19 198.7 365.38H198.73C198.86 363.94 198.9 361.84 198.9 360.51V348.32H192.78V362.56C192.78 372.16 188.32 375.31 181.93 375.31C176.67 375.31 170.95 372.54 170.95 361.81L170.82 348.32H164.83V362.37C164.83 375.25 172.21 379.9 181.34 379.9C187.6 379.9 192.23 378.15 195.16 374.68C198.29 376.6 201.88 377.86 206.41 377.86H286.12V339.92H279.99V373.27H279.95Z" fill="#1D136A"/>
<path d="M332.34 383.57C330.4 383.57 328.88 385.08 328.88 386.9C328.88 388.72 330.4 390.18 332.34 390.18C334.28 390.18 335.8 388.67 335.8 386.9C335.8 385.02 334.2 383.57 332.34 383.57Z" fill="#1D136A"/>
<path d="M320.9 383.57C318.96 383.57 317.44 385.08 317.44 386.9C317.44 388.72 318.96 390.18 320.9 390.18C322.84 390.18 324.36 388.67 324.36 386.9C324.36 385.02 322.83 383.57 320.9 383.57Z" fill="#1D136A"/>
<path d="M406.28 343.04C408.28 343.04 409.94 341.47 409.94 339.58C409.94 337.69 408.28 336.19 406.28 336.19C404.28 336.19 402.68 337.76 402.68 339.58C402.68 341.4 404.34 343.04 406.28 343.04Z" fill="#1D136A"/>
<path d="M401.89 373.26H389.63C390.7 363.15 397.09 352.22 406.21 352.22C411.73 352.22 414.33 356.11 414.33 362.33C414.33 368.55 411.67 373.26 401.88 373.26M407.35 347.63C399.62 347.63 392.17 352.59 389.1 362.02H388.97C389.5 358.5 389.7 354.17 389.7 350.78V333.56H383.58V373.26H362.5V361.72C362.5 353.1 358.77 348.02 347.66 348.02C341.33 348.02 335.53 349.22 335.53 349.22V373.26H329.81C315.89 373.26 311.89 368.43 311.89 358.87L312.05 348.32H305.77V359.57C305.77 371.5 312.23 377.86 329.01 377.86H341.46V353.1C341.46 353.1 344.32 352.61 347.05 352.61C353.78 352.61 356.51 355.37 356.51 362.47V377.86H401.22C415.61 377.86 420.66 370.57 420.66 361.89C420.66 353.21 415.88 347.63 407.35 347.63Z" fill="#1D136A"/>
<path d="M450.86 373.27H445C436.41 373.27 432.87 369.75 432.87 362.57C432.87 356.36 436.6 352.21 442.8 352.21C447.6 352.21 450.86 353.65 450.86 353.65V373.26V373.27ZM480.14 348.32H474.02V373.27H456.85V349.82C456.85 349.82 450.79 347.62 443.46 347.62C432.08 347.62 426.68 354.9 426.68 363.14C426.68 372.12 431.35 377.84 444.12 377.84H450.67C449.85 382.57 446.17 384.79 441.17 385.39V389.96C451.28 388.93 455.73 383.64 456.65 377.83H480.13V348.3L480.14 348.32Z" fill="#1D136A"/>
<path d="M476.68 383.38C474.68 383.38 473.14 384.89 473.14 386.77C473.14 388.65 474.67 390.16 476.68 390.16C478.69 390.16 480.28 388.65 480.28 386.77C480.28 384.89 478.68 383.38 476.68 383.38Z" fill="#1D136A"/>
<path d="M359.1 383.38C357.1 383.38 355.58 384.89 355.58 386.77C355.58 388.65 357.1 390.16 359.1 390.16C361.1 390.16 362.7 388.65 362.7 386.77C362.7 384.89 361.1 383.38 359.1 383.38Z" fill="#1D136A"/>
<path d="M499.32 337.96H493.19V377.86H499.32V337.96Z" fill="#1D136A"/>
<path d="M36.2399 373.26H29.6499C21.1399 373.26 17.5399 369.82 17.5399 362.64C17.5399 356.36 21.2699 352.22 27.4599 352.22C32.9799 352.22 36.2499 355.17 36.2499 362.64V373.26H36.2399ZM27.9899 347.63C17.0099 347.63 11.3399 354.86 11.3399 362.97C11.3399 371.08 8.1399 373.26 3.7499 373.26H0.149902V377.86H4.7499C10.2699 377.86 13.3399 375.34 14.3399 371.95C16.5399 375.47 19.9899 377.86 29.7099 377.86H42.2299V361.71C42.2299 352.72 37.5099 347.63 27.9899 347.63Z" fill="#1D136A"/>
<path d="M495.21 323.3C496.59 323.3 498.13 323.99 499.3 324.66V322.65C499.3 322.65 494.23 319.87 491.2 322.33C488.17 324.79 489.78 329.36 494.12 331.39H489.84V333.42H499.29V331.39C498.45 331.21 497.64 330.99 496.95 330.71C496.92 330.7 496.91 330.7 496.9 330.7C496.74 330.65 496.59 330.6 496.43 330.53C495.27 330.06 494.36 329.35 494.04 329.05H494.03C493.95 328.97 493.9 328.93 493.9 328.93C492.83 327.96 492.25 326.85 492.25 325.76C492.25 324.41 493.16 323.3 495.2 323.3" fill="#1D136A"/>
</g>
<defs>
<clipPath id="clip0_5_87">
<rect width="500" height="443.11" fill="white"/>
</clipPath>
</defs>
</svg>
