<svg width="500" height="340" viewBox="0 0 500 340" fill="none" xmlns="http://www.w3.org/2000/svg">
<g clip-path="url(#clip0_5_51)">
<path d="M16.82 309.27L22.56 324.57H11.03L16.82 309.27ZM14.37 303.7L0.52002 338.5H5.89002L9.55002 328.8H24.1L27.77 338.5H33.45L19.58 303.7H14.37Z" fill="white"/>
<path d="M56.8001 331.57C56.2801 332.32 55.5901 332.89 54.7601 333.28C53.9401 333.66 53.0201 333.9 52.0301 334C51.0501 334.1 50.0801 334.16 49.1701 334.16H43.0101V322.47H49.4901C50.3701 322.47 51.3001 322.54 52.2501 322.7C53.2001 322.86 54.0701 323.16 54.8701 323.61C55.6801 324.07 56.3301 324.68 56.8401 325.45C57.3601 326.22 57.6201 327.21 57.6201 328.47C57.6201 329.73 57.3501 330.83 56.8101 331.57M43.0001 308.03H49.3201C50.1001 308.03 50.8801 308.09 51.6501 308.2C52.4301 308.33 53.1401 308.58 53.7801 308.94C54.4201 309.3 54.9401 309.81 55.3301 310.46C55.7201 311.1 55.9101 311.94 55.9101 312.99C55.9101 313.93 55.7201 314.73 55.3301 315.38C54.9401 316.05 54.4201 316.58 53.7801 317C53.1401 317.42 52.4301 317.72 51.6501 317.91C50.8801 318.11 50.1001 318.2 49.3201 318.2H43.0001V308.03ZM59.9401 322.21C59.1601 321.54 58.3201 321.05 57.4201 320.72C56.5101 320.4 55.6801 320.17 54.9501 320.07C55.5101 320 56.1501 319.78 56.8301 319.39C57.5201 319.01 58.1601 318.51 58.7401 317.89C59.3301 317.25 59.8201 316.49 60.2301 315.59C60.6301 314.68 60.8401 313.68 60.8401 312.57C60.8401 311.34 60.6201 310.2 60.1901 309.13C59.7401 308.05 59.0801 307.11 58.1901 306.31C57.3101 305.5 56.1801 304.88 54.8501 304.4C53.5001 303.94 51.9001 303.69 50.0601 303.69H38.0601V338.49H49.4301C51.2701 338.49 53.0001 338.35 54.6401 338.03C56.2601 337.71 57.6801 337.18 58.8601 336.41C60.0501 335.64 60.9901 334.65 61.6701 333.42C62.3601 332.18 62.7101 330.63 62.7101 328.75C62.7101 327.19 62.4501 325.87 61.9101 324.82C61.3701 323.75 60.7201 322.9 59.9401 322.23" fill="white"/>
<path d="M91.9101 324.04C91.9101 325.6 91.7701 327.05 91.4901 328.35C91.2001 329.65 90.7101 330.77 90.0301 331.71C89.3401 332.65 88.4101 333.37 87.2701 333.88C86.1101 334.39 84.6701 334.63 82.9501 334.63C81.2301 334.63 79.7101 334.38 78.5701 333.88C77.4101 333.37 76.4901 332.65 75.8101 331.71C75.1201 330.77 74.6201 329.66 74.3501 328.35C74.0601 327.05 73.9201 325.6 73.9201 324.04V303.69H68.8301V325.24C68.8301 327.22 69.1001 329.07 69.6801 330.79C70.2401 332.51 71.1101 334.02 72.2701 335.27C73.4401 336.54 74.9201 337.54 76.6801 338.28C78.4601 339 80.5401 339.38 82.9601 339.38C85.3801 339.38 87.4401 339 89.2201 338.28C90.9801 337.54 92.4501 336.54 93.6001 335.27C94.7401 334.01 95.6001 332.51 96.1701 330.79C96.7301 329.07 97.0101 327.22 97.0101 325.24V303.69H91.9201V324.04H91.9101Z" fill="white"/>
<path d="M136.44 330.8C133.97 332.94 130.52 334 126.1 334H119.52V308.18H125.94C130.65 308.18 134.2 309.29 136.57 311.55C138.94 313.79 140.13 317.03 140.13 321.27C140.13 325.51 138.9 328.66 136.44 330.8ZM140.07 307.89C138.36 306.44 136.34 305.39 134 304.71C131.64 304.03 129.07 303.7 126.26 303.7H114.41V338.5H126.21C129 338.5 131.59 338.15 133.96 337.46C136.33 336.77 138.36 335.7 140.06 334.25C141.75 332.8 143.08 331 144.04 328.81C144.99 326.64 145.47 324.1 145.47 321.17C145.47 318.24 144.99 315.54 144.04 313.35C143.09 311.15 141.75 309.34 140.06 307.9" fill="white"/>
<path d="M176.88 303.7V318.25H157.48V303.7H152.39V338.5H157.48V322.73H176.88V338.5H181.97V303.7H176.88Z" fill="white"/>
<path d="M202.83 309.27L208.57 324.57H197.06L202.83 309.27ZM200.4 303.7L186.54 338.5H191.89L195.56 328.8H210.1L213.77 338.5H219.45L205.59 303.7H200.38H200.4Z" fill="white"/>
<path d="M242.82 331.57C242.3 332.32 241.61 332.89 240.78 333.28C239.94 333.66 239.03 333.9 238.05 334C237.05 334.1 236.1 334.16 235.19 334.16H229.03V322.47H235.49C236.39 322.47 237.3 322.54 238.27 322.7C239.22 322.86 240.09 323.16 240.89 323.61C241.69 324.07 242.35 324.68 242.86 325.45C243.38 326.22 243.63 327.21 243.63 328.47C243.63 329.73 243.37 330.83 242.83 331.57M229.02 308.03H235.34C236.11 308.03 236.89 308.09 237.67 308.2C238.45 308.33 239.16 308.58 239.8 308.94C240.44 309.3 240.94 309.81 241.35 310.46C241.73 311.1 241.93 311.94 241.93 312.99C241.93 313.93 241.73 314.73 241.35 315.38C240.95 316.05 240.44 316.58 239.8 317C239.16 317.42 238.45 317.72 237.67 317.91C236.89 318.11 236.11 318.2 235.34 318.2H229.02V308.03ZM245.96 322.21C245.18 321.54 244.34 321.05 243.44 320.72C242.53 320.4 241.7 320.17 240.97 320.07C241.53 320 242.16 319.78 242.85 319.39C243.54 319.01 244.18 318.51 244.76 317.89C245.35 317.25 245.84 316.49 246.25 315.59C246.65 314.68 246.86 313.68 246.86 312.57C246.86 311.34 246.64 310.2 246.19 309.13C245.76 308.05 245.09 307.11 244.21 306.31C243.33 305.5 242.2 304.88 240.87 304.4C239.51 303.94 237.92 303.69 236.08 303.69H224.08V338.49H235.45C237.29 338.49 239.02 338.35 240.66 338.03C242.28 337.71 243.7 337.18 244.88 336.41C246.05 335.64 246.99 334.65 247.69 333.42C248.38 332.18 248.73 330.63 248.73 328.75C248.73 327.19 248.47 325.87 247.93 324.82C247.39 323.75 246.74 322.9 245.96 322.23" fill="white"/>
<path d="M260.52 303.69H255.41V338.49H260.52V303.69Z" fill="white"/>
<path d="M302.46 328.92C301.9 329.5 301.25 329.99 300.52 330.42C299.8 330.87 298.96 331.22 298.02 331.48C297.09 331.74 295.98 331.87 294.71 331.87C293.15 331.87 291.76 331.6 290.52 331.03C289.28 330.48 288.22 329.71 287.34 328.73C286.44 327.76 285.76 326.62 285.29 325.29C284.81 323.97 284.58 322.54 284.58 321.01C284.58 319.48 284.81 318.1 285.29 316.76C285.77 315.43 286.45 314.26 287.34 313.25C288.22 312.24 289.31 311.46 290.58 310.88C291.85 310.3 293.28 310.01 294.88 310.01C296.89 310.01 298.63 310.46 300.09 311.34C301.54 312.24 302.79 313.41 303.85 314.87L309.33 309.71C307.7 307.48 305.66 305.78 303.2 304.59C300.73 303.4 297.86 302.83 294.57 302.83C291.84 302.83 289.36 303.31 287.11 304.26C284.87 305.21 282.93 306.52 281.32 308.17C279.71 309.82 278.46 311.77 277.57 314.01C276.69 316.25 276.24 318.67 276.24 321.24C276.24 323.81 276.69 326.3 277.57 328.51C278.45 330.72 279.71 332.63 281.32 334.25C282.93 335.87 284.85 337.13 287.08 338.02C289.32 338.93 291.78 339.38 294.47 339.38C296.09 339.38 297.65 339.19 299.17 338.8C300.67 338.42 302.06 337.9 303.36 337.24C304.65 336.59 305.82 335.81 306.89 334.93C307.95 334.05 308.86 333.09 309.59 332.08L304.12 327.18C303.58 327.77 303.04 328.35 302.47 328.93" fill="white"/>
<path d="M335.01 324.3C335.01 325.44 334.89 326.48 334.66 327.4C334.43 328.33 334.05 329.12 333.52 329.79C333 330.44 332.29 330.96 331.42 331.32C330.55 331.68 329.51 331.87 328.27 331.87C327.03 331.87 325.93 331.68 325.06 331.32C324.19 330.96 323.48 330.44 322.96 329.79C322.42 329.12 322.05 328.33 321.82 327.4C321.59 326.49 321.47 325.45 321.47 324.3V303.69H313.4V325.3C313.4 327.38 313.75 329.29 314.44 331.03C315.12 332.78 316.12 334.27 317.4 335.53C318.69 336.77 320.26 337.74 322.1 338.42C323.94 339.1 325.99 339.43 328.26 339.43C330.53 339.43 332.57 339.08 334.42 338.39C336.26 337.7 337.82 336.73 339.12 335.5C340.41 334.26 341.41 332.78 342.08 331.03C342.77 329.29 343.12 327.39 343.12 325.3V303.69H334.99V324.3H335.01Z" fill="white"/>
<path d="M349.77 303.7V338.5H374.73V331.5H357.79V303.7H349.77Z" fill="white"/>
<path d="M368.78 303.7V310.64H380.25V338.5H388.32V310.64H399.73V303.7H368.78Z" fill="white"/>
<path d="M425.65 324.3C425.65 325.44 425.53 326.48 425.3 327.4C425.07 328.33 424.69 329.12 424.16 329.79C423.64 330.44 422.93 330.96 422.06 331.32C421.19 331.68 420.15 331.87 418.91 331.87C417.67 331.87 416.57 331.68 415.7 331.32C414.83 330.96 414.12 330.44 413.6 329.79C413.06 329.12 412.69 328.33 412.46 327.4C412.23 326.49 412.11 325.45 412.11 324.3V303.69H404.04V325.3C404.04 327.38 404.39 329.29 405.08 331.03C405.76 332.78 406.76 334.27 408.04 335.53C409.33 336.77 410.9 337.74 412.74 338.42C414.58 339.1 416.63 339.43 418.9 339.43C421.17 339.43 423.21 339.08 425.06 338.39C426.9 337.7 428.46 336.73 429.76 335.5C431.05 334.26 432.05 332.78 432.72 331.03C433.41 329.29 433.76 327.39 433.76 325.3V303.69H425.63V324.3H425.65Z" fill="white"/>
<path d="M456.66 318.09C455.82 318.96 454.65 319.39 453.16 319.39H448.23V310.16H453.16C454.65 310.16 455.82 310.58 456.66 311.42C457.51 312.24 457.95 313.39 457.95 314.8C457.95 316.13 457.52 317.22 456.66 318.08M464.5 320.52C465.51 318.84 466 316.86 466 314.6C466 313.1 465.75 311.69 465.23 310.36C464.72 309.04 463.94 307.89 462.9 306.89C461.86 305.91 460.56 305.13 458.99 304.55C457.43 303.97 455.62 303.7 453.57 303.7H440.41V338.5H448.22V325.71H452.67L459.25 338.5H468.07L460.2 324.57C462.05 323.56 463.47 322.21 464.48 320.52" fill="white"/>
<path d="M472.64 303.7V338.5H498.03V331.56H480.66V324.05H493.25V317.37H480.66V310.58H496.86V303.7H472.64Z" fill="white"/>
<path d="M21.9901 225.52L25.6901 220.26C23.8501 218.83 21.8101 217.95 19.4601 217.44L17.2901 220.69C15.4801 219.3 13.4401 218.45 11.1601 217.97L7.6001 223.25C9.5401 223.48 12.4701 224.87 13.6901 226.03L16.0001 222.78C17.9801 223.04 20.8201 224.4 21.9901 225.53" fill="white"/>
<path d="M11.5501 252.71C7.5301 252.71 5.3601 251.13 5.3601 250.12C6.1601 248.08 13.9701 243.87 18.8801 243.39C18.9101 243.66 19.0501 248.38 19.0501 249.78C19.0501 251.78 14.9301 252.7 11.5401 252.7M142.73 242.31C137.55 242.31 135.09 241.25 135.09 238.97C135.09 236.87 138.07 234.49 141.45 234.49C146.22 234.49 148.64 238.57 149.53 241.87C147.46 242.25 144.14 242.32 142.72 242.32M142.97 227.76C136.53 227.76 133.22 234.66 133.22 240.88C133.22 247.1 135.81 249.62 141.72 249.62C144.9 249.62 148.08 249.27 150.2 248.09C150.2 248.49 150.23 248.9 150.23 249.35V249.52C150.23 251.79 144.63 253.12 131.79 253.12H32.0501C26.6301 253.12 23.7201 251.96 23.5001 244.82C23.3301 239.5 23.1701 233.91 23.1701 230.49C23.1701 229.33 23.1701 228.45 23.2301 227.84L22.4101 228.1C21.0901 230.11 19.6801 231.74 18.4301 233.44C17.8801 234.19 17.6601 235.8 17.6601 236.78C8.5601 239.46 3.1001 245.82 3.1001 253.73C3.1001 257.58 4.6901 261.14 9.4101 261.14C14.1301 261.14 17.4901 258.39 18.8101 253.81C20.1601 260.67 23.8901 263.15 29.6301 263.15H132.12C143.33 263.15 147.65 260.05 150.14 255.44C151.9 252.17 152.6 248.27 152.6 244.12C152.6 234.98 149.2 227.78 142.98 227.78" fill="white"/>
<path d="M147.12 218.65C145.25 217.06 143.11 216.03 140.55 215.48L136.78 221.47C138.82 221.72 141.97 223.31 143.22 224.59L147.13 218.65H147.12Z" fill="white"/>
<path d="M185.36 227.76C187.33 228.03 190.18 229.39 191.35 230.51L195.05 225.25C193.21 223.82 191.17 222.94 188.82 222.43L186.65 225.7C184.84 224.3 182.8 223.46 180.52 222.98L176.96 228.24C178.9 228.47 181.83 229.87 183.05 231.02L185.36 227.77V227.76Z" fill="white"/>
<path d="M215.24 231.43C213.37 230 211.36 229.12 208.91 228.64L205.28 234.05C207.22 234.25 210.23 235.71 211.47 236.87L215.24 231.43Z" fill="white"/>
<path d="M207.77 244.04L209.98 240.81C211.85 241.04 214.65 242.37 215.75 243.53L219.32 238.47C217.58 237.04 215.65 236.18 213.36 235.71L211.22 238.91C209.53 237.59 207.59 236.77 205.3 236.26L201.87 241.39C203.74 241.59 206.54 242.88 207.76 244.04" fill="white"/>
<path d="M185.29 251.93C181.31 250.4 178.9 248.08 178.9 245.36C178.9 243.73 181.84 240.88 185.67 240.88C190.52 240.88 192.6 244.48 192.6 246.82C192.6 248.9 188.17 251.38 185.3 251.93M254.59 217.06L253.59 217.29C252.48 220.05 250.54 224.16 249.84 225.45C249.44 226.27 249.33 227.01 249.33 228.04C249.33 229.2 250.68 247.58 250.68 250.23C250.68 251.18 250.23 253.12 243.17 253.12H243.04C237.65 253.12 234.69 251.96 234.49 244.83C234.42 242.21 234.36 237.99 234.36 233.65C234.36 226.2 234.53 218.32 234.98 217.13L233.97 217.56C232.55 220.31 230.83 222.67 229.82 224.56C229.42 225.38 229.07 226.17 229.07 227.15C229.07 228.13 229.3 238.84 229.3 249.51C229.3 249.78 228.92 253.11 221.79 253.11H221.66C217.51 253.11 212.91 252.26 212.91 248.22C212.91 247.67 213.01 246.92 213.16 246.34L212.05 246.51C210.63 251.04 208.42 253.11 201.58 253.11H200.58C197.54 253.11 194.74 253.11 192.08 252.4C193.5 250.09 194.94 246.69 194.94 242.88C194.94 239.07 193.07 233.87 187.16 233.87C181.25 233.87 177.17 238.73 177.17 247.34C177.17 249.23 177.62 250.8 178.49 252.56C176.86 252.91 175.06 253.11 173.05 253.11H172.3C166.91 253.11 164.22 251.98 163.87 244.85C163.65 240.7 163.45 232.66 163.45 226.26C163.45 221.68 163.55 217.93 163.87 217.15L162.83 217.58C161.48 220.37 159.78 222.76 158.85 224.65C158.43 225.5 158.13 226.26 158.13 227.27C158.13 229.45 158.23 238.28 158.71 248.92C159.23 259.59 162.93 263.12 169.92 263.12H170.61C177.67 263.12 181.7 261.86 184.54 259.97C188.49 262.47 193.26 263.12 198.38 263.12H199.18C206.02 263.12 208.65 260 210.03 257.52C210.93 260.07 213.46 263.12 219.27 263.12H219.3C225 263.12 228.53 260.3 230.29 255.74C231.92 261.11 235.48 263.12 240.65 263.12H240.66C249.31 263.12 252.59 255.71 254.01 250.52C254.75 248.34 255.15 244.3 255.15 238.59C255.15 232.88 254.5 224.47 254.5 220.44C254.5 219.36 254.53 218.27 254.6 217.04" fill="white"/>
<path d="M291.1 289.68C292.86 289.95 295.42 291.17 296.47 292.2L299.83 287.44C298.17 286.14 296.33 285.33 294.19 284.89L292.28 287.67C290.66 286.46 288.9 285.67 286.81 285.27L283.6 290.06C285.36 290.26 288.03 291.52 289.1 292.58L291.11 289.69L291.1 289.68Z" fill="white"/>
<path d="M390.89 274.22C392.86 274.42 395.84 275.85 397.01 277.01L400.76 271.7C398.92 270.27 396.88 269.36 394.5 268.88L390.9 274.22H390.89Z" fill="white"/>
<path d="M423.09 255.93C419.98 255.93 416.23 255.93 413.75 255.63C417.66 251.18 424.06 245.84 431.08 245.84C436.37 245.84 438.34 250.06 438.34 251.68C438.34 253.76 433.41 255.93 423.1 255.93M433.88 239.01C429.63 239.01 423.71 241.7 418.22 248.35C418.8 246.28 419.02 242.28 419.12 237.78C419.19 234.96 419.19 231.94 419.19 229.09C419.19 225.34 419.22 217.91 419.49 217.16L418.42 217.74C417 220.46 416 222.98 415.04 224.84C414.59 225.69 414.23 226.45 414.23 227.43C414.23 227.86 414.3 231.84 414.3 236.8C414.3 243.64 414.17 251.8 413.5 253.11C412.85 254.4 411.61 255.87 408.97 255.87H408.35C404.14 255.87 399.37 255.19 399.37 251.34C399.37 250.83 399.44 250.26 399.6 249.75L398.53 249.85C397.33 253.78 395.1 255.87 388.26 255.87H313.96C310.05 255.87 302.1 255.7 297.15 253.69C296.18 255.3 295.49 257.57 295.28 259.78C297.07 261.65 302.16 262.8 305.72 263.28C307.31 263.48 308.95 263.99 308.95 264.29C308.95 265.85 304.9 273.23 291.44 273.23C279.86 273.23 276.57 268.27 276.57 261.95C276.57 259.58 277.02 257.02 277.99 253.21L276.67 253.89C275.6 257.29 274.83 260.49 274.83 264.56C274.83 272.75 278.5 280.53 290.13 280.53C305.32 280.53 310.15 269.39 311.04 263.13H386.07C393.06 263.13 395.82 260.38 397.09 258.28C398.03 260.68 400.24 263.13 406.11 263.13H420.23C428.43 263.13 433.38 261.21 437.08 256.81C440.26 253.04 441.66 249.33 441.66 246.61C441.66 242.53 439.35 239 433.85 239" fill="white"/>
<path d="M431.7 231.02L435.43 225.71C433.61 224.29 431.55 223.37 429.18 222.89L425.58 228.23C427.55 228.45 430.53 229.86 431.7 231.02Z" fill="white"/>
<path d="M458.18 255.9C453.2 255.9 450.7 254.71 450.7 252.13C450.7 249.71 453.68 247 456.96 247C461.53 247 464.51 252.24 464.96 255.91H458.18V255.9ZM445.72 274.36C445.07 274.36 444.52 274.29 443.58 274.09L443.85 275.07C445.79 276.05 449.14 279.63 453.09 279.63C457.54 279.63 465.5 275.12 467.06 263.14H467.6C473.34 263.11 476.31 260.71 478.11 257.6C479.74 254.79 480.34 251.45 480.34 249.44C480.34 245.2 479.37 242.51 476.04 239.46L473.58 245.64C476.59 248.26 478.28 251.76 478.28 253.19C478.28 253.8 476.49 255.88 469.78 255.88H467.16C466.96 248.1 464.08 241.16 458.31 241.16C452.54 241.16 448.94 247.63 448.94 253.84C448.94 260.05 451.05 263.14 457.89 263.14H465.08C465.08 265.3 457.72 274.36 445.71 274.36" fill="white"/>
<path d="M479.51 272.39C477.67 270.96 475.63 270.05 473.25 269.57L469.65 274.91C471.63 275.11 474.61 276.54 475.78 277.7L479.51 272.39Z" fill="white"/>
<path d="M491.86 211.55C493.65 211.55 494.8 212.81 494.94 214.34L495.46 213.79C495.63 213.11 495.76 212.43 495.76 211.85C495.76 209.54 494.04 208.05 492.13 208.05C489.37 208.05 486.11 210.49 486.11 214.85C486.11 216.64 486.95 218.52 489.49 219.41C489.08 219.61 488.12 219.99 487.52 220.36C487.03 220.66 486.35 221.4 485.96 222.28V222.66C489.29 221.13 492.27 220.72 495.85 220.39C495.85 220.39 497.31 218.38 497.73 217.57L497.48 216.99C496.13 217.22 494.99 217.29 493.81 217.29C489.98 217.29 487.24 216.1 487.24 214.24C487.24 212.81 489.83 211.55 491.84 211.55" fill="white"/>
<path d="M489.47 264.5C492.33 258.51 493.77 255.29 493.77 246.83C493.77 243.68 493.45 234.42 493.45 228.35C493.45 225.46 493.52 223.49 493.72 222.98L492.85 223.31C491.68 225.65 489.84 228.79 489.19 229.91C488.77 230.59 488.52 231.27 488.52 232.12C488.52 233.68 489.01 255.43 489.01 258.01C489.01 260.59 488.76 263.72 488.24 264.88L489.45 264.5H489.47Z" fill="white"/>
<path d="M357.54 28.7902L428.57 28.7302C434.86 28.7602 439.95 23.8002 440 17.6502C440.03 11.4902 434.98 6.47018 428.72 6.43018L357.68 6.50018C354.58 6.47018 351.76 7.67018 349.68 9.67018C347.63 11.6502 346.28 14.4702 346.24 17.5702C346.21 23.7302 351.26 28.7502 357.55 28.7902" fill="white"/>
<path d="M235.59 29.74C240.97 24.33 240.91 15.65 235.42 10.34C229.91 5.04997 221.06 5.11997 215.63 10.53C210.25 15.95 210.35 24.63 215.83 29.93C221.35 35.24 230.16 35.17 235.59 29.74Z" fill="white"/>
<path d="M252.59 133.87C252.5 133.94 252.4 134.04 252.33 134.12C245.14 141.11 235.61 144.94 225.52 144.88C225.52 144.89 225.51 144.88 225.51 144.88L187.73 144.69L187.92 107.55C188.02 87.0598 205.06 70.4998 225.93 70.5798C246.79 70.6698 263.64 87.4398 263.55 107.92C263.51 117.71 259.62 126.91 252.6 133.87M98.6801 112.72C98.5801 133.32 81.4501 149.95 60.4801 149.86C39.5101 149.77 22.5901 132.91 22.6601 112.34C22.7001 102.49 26.6201 93.2498 33.6701 86.2598C33.7601 86.1698 33.8601 86.0698 33.9301 85.9998C41.1601 78.9898 50.7401 75.1398 60.8701 75.1798C60.8801 75.1698 60.9001 75.1798 60.9001 75.1798L98.8701 75.3698L98.6801 112.71V112.72ZM226 48.3898C192.71 48.2198 165.47 74.7098 165.3 107.44L165.13 144.58L154.83 144.44L154.77 139.9C154.78 139.78 154.81 139.68 154.81 139.57L154.74 64.6198C154.75 61.6698 153.58 58.8198 151.47 56.7098C149.33 54.5998 146.47 53.3998 143.43 53.3798L114.98 53.1598L70.1301 9.71978V9.74978C68.0301 7.83978 65.2601 6.66978 62.1901 6.69978C55.8801 6.75978 50.8201 11.8498 50.8801 18.0198C50.9101 21.9698 53.0101 25.4098 56.1401 27.3798L82.5601 52.9898C82.5601 52.9898 58.0501 52.9198 57.5701 52.9598C42.6301 53.6798 28.6701 59.7098 17.9601 70.1398C17.8201 70.2798 17.6901 70.4398 17.5401 70.5698C6.29011 81.7398 0.0601084 96.4998 0.00010839 112.23C-0.219892 145.12 26.9001 172.02 60.4001 172.17C93.8501 172.34 121.23 145.72 121.41 112.83L121.58 75.4998L131.95 75.6398L132.11 139.38V139.47L132.15 155.39C132.14 158.34 133.29 161.16 135.4 163.27C137.53 165.37 140.38 166.57 143.4 166.57L171.69 166.8L203.94 166.97C203.94 166.97 228.32 167.04 228.79 166.98C243.67 166.27 257.56 160.27 268.22 149.9C268.36 149.74 268.49 149.6 268.64 149.45C279.83 138.36 286.02 123.66 286.1 108.03C286.3 75.2898 259.33 48.5298 226.01 48.3798" fill="white"/>
<path d="M486.65 4.09C484.55 1.5 481.36 0 477.99 0C474.62 0 471.44 1.5 469.34 4.09L458.41 17.58C454.59 22.27 455.39 29.11 460.16 32.85C464.95 36.6 471.9 35.81 475.71 31.13L478 28.3L480.3 31.13C482.48 33.82 485.71 35.22 488.95 35.22C491.38 35.22 493.81 34.44 495.85 32.85C500.62 29.1 501.42 22.26 497.6 17.58L486.67 4.09H486.65Z" fill="white"/>
<path d="M351.31 107.54C351.41 87.0498 368.45 70.4898 389.32 70.5698C410.18 70.6598 427.03 87.4298 426.94 107.91C426.9 117.7 423.01 126.9 415.99 133.86C415.9 133.93 415.8 134.05 415.73 134.12C409.55 140.11 401.64 143.75 393.15 144.65L373.81 144.68L373.77 144.8L351.12 144.68L351.31 107.54ZM295.51 139.38C295.51 139.38 295.52 139.44 295.52 139.47L295.55 155.39C295.54 158.34 296.69 161.18 298.8 163.27C300.93 165.37 303.78 166.57 306.8 166.57L335.09 166.8L367.21 166.97V167.01L376.06 166.98C383.1 167.01 391.91 167.01 392.19 166.98C392.32 166.98 392.44 166.97 392.55 166.95L480.76 166.78C483.8 166.77 486.66 165.57 488.8 163.47C490.91 161.34 492.08 158.49 492.07 155.54L492.14 63.9298C492.07 57.7798 486.96 52.8398 480.69 52.8798C474.41 52.9398 469.39 57.9598 469.44 64.1198L469.28 144.53L436.42 144.57C444.82 134.2 449.44 121.47 449.49 108.02C449.69 75.2798 422.72 48.5298 389.4 48.3698C356.12 48.2098 328.87 74.6898 328.7 107.42L328.53 144.56L318.23 144.42L318.19 139.88C318.19 139.78 318.22 139.66 318.22 139.55L318.15 64.6198C318.16 64.3698 318.11 64.1398 318.09 63.9098L318.03 17.6598C318.07 14.6198 316.83 11.8598 314.8 9.80982C312.79 7.78982 309.91 6.46982 306.76 6.42982C300.5 6.39982 295.39 11.3498 295.35 17.5398L295.39 75.5398L295.35 75.6398L295.51 139.38Z" fill="white"/>
</g>
<defs>
<clipPath id="clip0_5_51">
<rect width="500" height="339.43" fill="white"/>
</clipPath>
</defs>
</svg>
