<svg width="208" height="209" viewBox="0 0 208 209" fill="none" xmlns="http://www.w3.org/2000/svg">
<path d="M69.3417 104.5C69.3417 85.2628 84.8582 69.6639 104.004 69.6639C123.15 69.6639 138.675 85.2628 138.675 104.5C138.675 123.737 123.15 139.336 104.004 139.336C84.8582 139.336 69.3417 123.737 69.3417 104.5ZM50.5993 104.5C50.5993 134.136 74.5086 158.159 104.004 158.159C133.5 158.159 157.409 134.136 157.409 104.5C157.409 74.8638 133.5 50.8405 104.004 50.8405C74.5086 50.8405 50.5993 74.8638 50.5993 104.5ZM147.043 48.7129C147.042 51.1931 147.773 53.6178 149.143 55.6806C150.514 57.7433 152.462 59.3514 154.743 60.3014C157.023 61.2515 159.532 61.5008 161.953 61.0179C164.374 60.535 166.599 59.3416 168.345 57.5886C170.091 55.8355 171.28 53.6016 171.763 51.1693C172.245 48.7369 171.999 46.2154 171.056 43.9237C170.112 41.6319 168.513 39.6728 166.461 38.2941C164.409 36.9153 161.997 36.1789 159.528 36.1779H159.523C156.215 36.1794 153.042 37.5004 150.702 39.8507C148.362 42.201 147.046 45.3884 147.043 48.7129ZM61.9865 189.56C51.8465 189.097 46.3351 187.399 42.6725 185.966C37.8167 184.066 34.3522 181.804 30.7095 178.149C27.0669 174.494 24.8121 171.016 22.93 166.137C21.5022 162.459 19.8132 156.92 19.3523 146.731C18.8481 135.716 18.7474 132.407 18.7474 104.501C18.7474 76.5943 18.8564 73.2946 19.3523 62.2703C19.814 52.082 21.5155 46.5535 22.93 42.8642C24.8204 37.9853 27.0719 34.5042 30.7095 30.8442C34.3472 27.1842 37.8084 24.9187 42.6725 23.0276C46.3334 21.593 51.8465 19.896 61.9865 19.4328C72.9494 18.9262 76.2425 18.825 104.004 18.825C131.766 18.825 135.062 18.9346 146.034 19.4328C156.174 19.8968 161.677 21.6064 165.348 23.0276C170.204 24.9187 173.669 27.1892 177.311 30.8442C180.954 34.4992 183.2 37.9853 185.091 42.8642C186.519 46.5426 188.208 52.082 188.669 62.2703C189.173 73.2946 189.273 76.5943 189.273 104.501C189.273 132.407 189.173 135.707 188.669 146.731C188.207 156.92 186.509 162.457 185.091 166.137C183.2 171.016 180.949 174.497 177.311 178.149C173.674 181.801 170.204 184.066 165.348 185.966C161.687 187.4 156.174 189.097 146.034 189.56C135.071 190.067 131.778 190.168 104.004 190.168C76.2301 190.168 72.946 190.067 61.9865 189.56ZM61.1253 0.632852C50.0535 1.13947 42.4878 2.90343 35.8806 5.48667C29.038 8.15434 23.2453 11.7333 17.4569 17.5401C11.6684 23.347 8.11565 29.1764 5.46063 36.0517C2.88965 42.6945 1.13406 50.2921 0.629849 61.4167C0.117317 72.5589 0 76.1211 0 104.5C0 132.879 0.117317 136.441 0.629849 147.583C1.13406 158.709 2.88965 166.305 5.46063 172.948C8.11565 179.819 11.6693 185.656 17.4569 191.46C23.2445 197.264 29.038 200.838 35.8806 203.513C42.5003 206.097 50.0535 207.861 61.1253 208.367C72.2205 208.874 75.76 209 104.004 209C132.248 209 135.794 208.882 146.883 208.367C157.956 207.861 165.516 206.097 172.128 203.513C178.966 200.838 184.763 197.267 190.551 191.46C196.34 185.653 199.885 179.819 202.548 172.948C205.119 166.305 206.883 158.708 207.378 147.583C207.883 136.433 208 132.879 208 104.5C208 76.1211 207.883 72.5589 207.378 61.4167C206.874 50.2913 205.119 42.6903 202.548 36.0517C199.885 29.1806 196.331 23.3562 190.551 17.5401C184.772 11.7241 178.966 8.15434 172.136 5.48667C165.516 2.90343 157.955 1.13111 146.891 0.632852C135.802 0.126236 132.257 0 104.012 0C75.7683 0 72.2205 0.117876 61.1253 0.632852Z" fill="#1D136A"/>
</svg>
