<svg width="216" height="90" viewBox="0 0 216 90" fill="none" xmlns="http://www.w3.org/2000/svg">
<path fill-rule="evenodd" clip-rule="evenodd" d="M137 82H46C42.134 82 39 78.866 39 75C39 71.134 42.134 68 46 68H7C3.13401 68 0 64.866 0 61C0 57.134 3.13401 54 7 54H47C50.866 54 54 50.866 54 47C54 43.134 50.866 40 47 40H22C18.134 40 15 36.866 15 33C15 29.134 18.134 26 22 26H62C58.134 26 55 22.866 55 19C55 15.134 58.134 12 62 12H119C122.866 12 126 15.134 126 19C126 22.866 122.866 26 119 26H183C186.866 26 190 29.134 190 33C190 36.866 186.866 40 183 40H205C208.866 40 212 43.134 212 47C212 50.866 208.866 54 205 54H186C182.134 54 179 57.134 179 61C179 64.866 182.134 68 186 68H192C195.866 68 199 71.134 199 75C199 78.866 195.866 82 192 82H140C139.485 82 138.983 81.9444 138.5 81.8389C138.017 81.9444 137.515 82 137 82Z" fill="#F3F7FF"/>
<path d="M133.1 6.30273L122 18.7559M107.1 2V18.7559V2ZM81 6.30273L92.0996 18.7559L81 6.30273Z" stroke="#1D136A" stroke-width="4" stroke-linecap="round" stroke-linejoin="round"/>
<path fill-rule="evenodd" clip-rule="evenodd" d="M96.1186 60.3066C96.0404 60.8599 96 61.4252 96 62C96 68.6274 101.373 74 108 74C114.627 74 120 68.6274 120 62C120 61.4252 119.96 60.8599 119.881 60.3066H149V87C149 88.6569 147.657 90 146 90H70C68.3431 90 67 88.6569 67 87V60.3066H96.1186Z" fill="white"/>
<path fill-rule="evenodd" clip-rule="evenodd" d="M121 60C121 67.1797 115.18 73 108 73C100.82 73 95 67.1797 95 60C95 59.7674 95.0061 59.5362 95.0182 59.3066H67L76.5604 31.0389C76.9726 29.8202 78.1159 29 79.4023 29H136.598C137.884 29 139.027 29.8202 139.44 31.0389L149 59.3066H120.982C120.994 59.5362 121 59.7674 121 60Z" fill="white"/>
<path fill-rule="evenodd" clip-rule="evenodd" d="M68.25 59.5123V86C68.25 86.9665 69.0335 87.75 70 87.75H146C146.966 87.75 147.75 86.9665 147.75 86V59.5123L138.255 31.4393C138.015 30.7285 137.348 30.25 136.598 30.25H79.4023C78.6519 30.25 77.985 30.7285 77.7446 31.4393L68.25 59.5123Z" stroke="#1D136A" stroke-width="4"/>
<path fill-rule="evenodd" clip-rule="evenodd" d="M119.098 60.9545C119.098 66.5025 114.129 72 108 72C101.871 72 96.9024 66.5025 96.9024 60.9545C96.9024 60.7748 96.9077 59.5962 96.918 59.4188H76L84.1614 39.5755C84.5132 38.6338 85.4891 38 86.5873 38H129.413C130.511 38 131.487 38.6338 131.839 39.5755L140 59.4188H119.082C119.092 59.5962 119.098 60.7748 119.098 60.9545Z" fill="#E8F0FE"/>
<path d="M81 59C84.9366 59 89.1849 59 93.7449 59C95.6212 59 95.6212 60.3186 95.6212 61C95.6212 67.6274 101.117 73 107.897 73C114.677 73 120.173 67.6274 120.173 61C120.173 60.3186 120.173 59 122.05 59H147M73.5737 59H76H73.5737Z" stroke="#1D136A" stroke-width="4" stroke-linecap="round" stroke-linejoin="round"/>
<circle cx="209" cy="75" r="7" fill="#F3F7FF"/>
</svg>
