<svg width="350" height="350" viewBox="0 0 350 350" fill="none" xmlns="http://www.w3.org/2000/svg">
<g clip-path="url(#clip0_9_4)">
<rect width="350" height="350" fill="#EEEDFB"/>
<path d="M210.714 125.5C217.981 125.5 223.935 131.123 224.462 138.256L224.5 139.304V161.734L211.214 175.021V138.786H138.786V211.214H175.021L161.734 224.5H139.286C132.132 224.5 126.251 219.051 125.566 212.077L125.538 211.744L125.5 210.696V139.286C125.5 132.022 131.119 126.068 138.248 125.538L139.304 125.5H210.714ZM224.5 210.714C224.5 217.979 218.88 223.931 211.751 224.461L210.696 224.5H183.352L196.637 211.214H211.214V196.637L224.5 183.351V210.714ZM197.269 188.964L183.163 203.071H146.929V195.181L157.143 182.924L167.647 195.529L168.022 195.979L168.407 195.538L185.714 175.759L197.269 188.964ZM164.286 154.071C169.927 154.072 174.5 158.645 174.5 164.286C174.5 169.927 169.927 174.5 164.286 174.5C158.645 174.5 154.072 169.927 154.071 164.286C154.071 158.645 158.645 154.071 164.286 154.071Z" fill="#1D136A" stroke="#1D136A"/>
</g>
<defs>
<clipPath id="clip0_9_4">
<rect width="350" height="350" fill="white"/>
</clipPath>
</defs>
</svg>
