<?xml version="1.0" encoding="UTF-8"?>
<svg id="Layer_1" xmlns="http://www.w3.org/2000/svg" version="1.1" viewBox="0 0 500 500">
  <!-- Generator: Adobe Illustrator 29.8.3, SVG Export Plug-In . SVG Version: 2.1.1 Build 3)  -->
  <defs>
    <style>
      .st0 {
        fill: #fff;
      }
    </style>
  </defs>
  <path class="st0" d="M13.7,236.3c7.53,0,13.7,6.16,13.7,13.7s-6.17,13.7-13.7,13.7-13.7-6.16-13.7-13.7,6.16-13.7,13.7-13.7ZM21.92,174.66c7.53,0,13.7,6.16,13.7,13.7s-6.17,13.7-13.7,13.7-13.7-6.16-13.7-13.7,6.16-13.7,13.7-13.7ZM21.92,297.95c7.53,0,13.7,6.16,13.7,13.7s-6.17,13.7-13.7,13.7-13.7-6.16-13.7-13.7,6.16-13.7,13.7-13.7ZM45.89,117.12c7.53,0,13.7,6.16,13.7,13.7s-6.16,13.7-13.7,13.7-13.7-6.16-13.7-13.7,6.16-13.7,13.7-13.7ZM45.89,355.48c7.53,0,13.7,6.16,13.7,13.7s-6.16,13.7-13.7,13.7-13.7-6.16-13.7-13.7,6.16-13.7,13.7-13.7ZM82.88,69.18c7.53,0,13.7,6.17,13.7,13.7s-6.16,13.7-13.7,13.7-13.7-6.16-13.7-13.7,6.16-13.7,13.7-13.7ZM82.88,403.43c7.53,0,13.7,6.16,13.7,13.7s-6.16,13.7-13.7,13.7-13.7-6.16-13.7-13.7,6.16-13.7,13.7-13.7ZM132.19,31.51c7.54,0,13.7,6.16,13.7,13.7s-6.16,13.7-13.7,13.7-13.7-6.17-13.7-13.7,6.17-13.7,13.7-13.7ZM132.19,441.1c7.54,0,13.7,6.17,13.7,13.7s-6.16,13.7-13.7,13.7-13.7-6.16-13.7-13.7,6.17-13.7,13.7-13.7ZM188.36,8.22c7.54,0,13.7,6.16,13.7,13.7s-6.16,13.7-13.7,13.7-13.7-6.16-13.7-13.7,6.16-13.7,13.7-13.7ZM188.36,464.39c7.54,0,13.7,6.16,13.7,13.7s-6.16,13.7-13.7,13.7-13.7-6.16-13.7-13.7,6.16-13.7,13.7-13.7ZM250,0c7.54,0,13.7,6.16,13.7,13.7s-6.16,13.7-13.7,13.7-13.7-6.16-13.7-13.7S242.47,0,250,0ZM250,472.6c7.54,0,13.7,6.16,13.7,13.7s-6.16,13.7-13.7,13.7-13.7-6.16-13.7-13.7,6.16-13.7,13.7-13.7ZM311.64,35.61c-7.54,0-13.7-6.16-13.7-13.7s6.16-13.7,13.7-13.7,13.7,6.16,13.7,13.7-6.17,13.7-13.7,13.7ZM311.64,491.78c-7.54,0-13.7-6.16-13.7-13.7s6.16-13.7,13.7-13.7,13.7,6.16,13.7,13.7-6.17,13.7-13.7,13.7ZM367.81,58.9c-7.54,0-13.7-6.17-13.7-13.7s6.16-13.7,13.7-13.7,13.7,6.16,13.7,13.7-6.16,13.7-13.7,13.7ZM367.81,468.49c-7.54,0-13.7-6.16-13.7-13.7s6.16-13.7,13.7-13.7,13.7,6.17,13.7,13.7-6.16,13.7-13.7,13.7ZM417.12,96.57c-7.53,0-13.7-6.16-13.7-13.7s6.17-13.7,13.7-13.7,13.7,6.17,13.7,13.7-6.16,13.7-13.7,13.7ZM417.12,430.82c-7.53,0-13.7-6.16-13.7-13.7s6.17-13.7,13.7-13.7,13.7,6.16,13.7,13.7-6.16,13.7-13.7,13.7ZM454.11,144.52c-7.53,0-13.7-6.16-13.7-13.7s6.16-13.7,13.7-13.7,13.7,6.16,13.7,13.7-6.16,13.7-13.7,13.7ZM454.11,382.88c-7.53,0-13.7-6.16-13.7-13.7s6.16-13.7,13.7-13.7,13.7,6.16,13.7,13.7-6.16,13.7-13.7,13.7ZM478.08,202.05c-7.53,0-13.7-6.16-13.7-13.7s6.17-13.7,13.7-13.7,13.7,6.16,13.7,13.7-6.16,13.7-13.7,13.7ZM478.08,325.34c-7.53,0-13.7-6.16-13.7-13.7s6.17-13.7,13.7-13.7,13.7,6.16,13.7,13.7-6.16,13.7-13.7,13.7ZM486.3,263.7c-7.53,0-13.7-6.16-13.7-13.7s6.17-13.7,13.7-13.7,13.7,6.16,13.7,13.7-6.16,13.7-13.7,13.7Z"/>
</svg>