<svg width="301" height="209" viewBox="0 0 301 209" fill="none" xmlns="http://www.w3.org/2000/svg">
<path d="M157.172 208.732L95.4173 207.598C75.422 207.204 55.3776 207.993 35.7754 203.9C5.95448 197.785 3.84196 167.802 1.63118 142.653C-1.41478 107.295 -0.235698 71.2965 5.51232 36.2349C8.7548 16.559 21.5282 4.82245 41.2778 3.54031C107.945 -1.09513 175.054 -0.552682 241.574 1.6171C248.6 1.81435 255.674 2.89924 262.601 4.13207C296.795 10.1483 297.63 44.125 299.84 72.7266C302.051 101.624 301.118 130.67 296.893 159.37C293.503 183.139 287.018 203.061 259.653 204.984C225.362 207.499 191.856 209.521 157.466 208.88C157.466 208.732 157.27 208.732 157.172 208.732ZM120.866 148.57C146.707 133.678 172.058 119.032 197.752 104.238C171.861 89.3451 146.56 74.6991 120.866 59.9052V148.57Z" fill="#1D136A"/>
</svg>
